{
  "accessors": [
    {
      "bufferView": 2,
      "componentType": 5126,
      "count": 20823,
      "max": [
        108.9371109008789,
        70.85237884521484,
        9.557783126831055
      ],
      "min": [
        -86.95915222167969,
        -70.85237884521484,
        -21.468154907226563
      ],
      "type": "VEC3"
    },
    {
      "bufferView": 2,
      "byteOffset": 249876,
      "componentType": 5126,
      "count": 20823,
      "max": [
        0.9999997019767761,
        1.0,
        1.0
      ],
      "min": [
        -0.9999958872795105,
        -1.0,
        -1.0
      ],
      "type": "VEC3"
    },
    {
      "bufferView": 3,
      "componentType": 5126,
      "count": 20823,
      "max": [
        1.0,
        1.0,
        0.999972403049469,
        1.0
      ],
      "min": [
        -0.9999998807907104,
        -1.0,
        -1.0,
        -1.0
      ],
      "type": "VEC4"
    },
    {
      "bufferView": 1,
      "componentType": 5126,
      "count": 20823,
      "max": [
        0.9965819716453552,
        0.999701976776123
      ],
      "min": [
        0.0014100000262260437,
        0.0019529999699443579
      ],
      "type": "VEC2"
    },
    {
      "bufferView": 1,
      "byteOffset": 166584,
      "componentType": 5126,
      "count": 20823,
      "max": [
        0.9965819716453552,
        0.999701976776123
      ],
      "min": [
        0.0014100000262260437,
        0.0019529999699443579
      ],
      "type": "VEC2"
    },
    {
      "bufferView": 1,
      "byteOffset": 333168,
      "componentType": 5126,
      "count": 20823,
      "max": [
        0.9965819716453552,
        0.999701976776123
      ],
      "min": [
        0.0014100000262260437,
        0.0019529999699443579
      ],
      "type": "VEC2"
    },
    {
      "bufferView": 1,
      "byteOffset": 499752,
      "componentType": 5126,
      "count": 20823,
      "max": [
        0.9965819716453552,
        0.999701976776123
      ],
      "min": [
        0.0014100000262260437,
        0.0019529999699443579
      ],
      "type": "VEC2"
    },
    {
      "bufferView": 0,
      "componentType": 5125,
      "count": 50340,
      "type": "SCALAR"
    },
    {
      "bufferView": 2,
      "byteOffset": 499752,
      "componentType": 5126,
      "count": 365,
      "max": [
        83.29724884033203,
        5.277345180511475,
        -5.84069299697876
      ],
      "min": [
        59.82803726196289,
        -5.277342796325684,
        -13.682380676269531
      ],
      "type": "VEC3"
    },
    {
      "bufferView": 2,
      "byteOffset": 504132,
      "componentType": 5126,
      "count": 365,
      "max": [
        0.4390425384044647,
        0.9397757053375244,
        -0.31978392601013184
      ],
      "min": [
        -0.1640447974205017,
        -0.9397725462913513,
        -0.9999783635139465
      ],
      "type": "VEC3"
    },
    {
      "bufferView": 1,
      "byteOffset": 666336,
      "componentType": 5126,
      "count": 365,
      "max": [
        0.9496222734451294,
        0.9329688549041748
      ],
      "min": [
        0.0638803243637085,
        0.06102091073989868
      ],
      "type": "VEC2"
    },
    {
      "bufferView": 0,
      "byteOffset": 201360,
      "componentType": 5125,
      "count": 1836,
      "type": "SCALAR"
    },
    {
      "bufferView": 2,
      "byteOffset": 508512,
      "componentType": 5126,
      "count": 4691,
      "max": [
        83.29724884033203,
        5.875907897949219,
        -0.8646000027656555
      ],
      "min": [
        59.26800537109375,
        -5.875907897949219,
        -12.94168472290039
      ],
      "type": "VEC3"
    },
    {
      "bufferView": 2,
      "byteOffset": 564804,
      "componentType": 5126,
      "count": 4691,
      "max": [
        0.9999932050704956,
        1.0,
        0.9990487694740295
      ],
      "min": [
        -0.9999992847442627,
        -1.0,
        -0.9998283386230469
      ],
      "type": "VEC3"
    },
    {
      "bufferView": 3,
      "byteOffset": 333168,
      "componentType": 5126,
      "count": 4691,
      "max": [
        1.0,
        1.0,
        0.9999708533287048,
        1.0
      ],
      "min": [
        -1.0,
        -1.0,
        -0.9999992251396179,
        -1.0
      ],
      "type": "VEC4"
    },
    {
      "bufferView": 1,
      "byteOffset": 669256,
      "componentType": 5126,
      "count": 4691,
      "max": [
        0.9970700144767761,
        0.997560977935791
      ],
      "min": [
        0.6464840173721313,
        0.3867189884185791
      ],
      "type": "VEC2"
    },
    {
      "bufferView": 1,
      "byteOffset": 706784,
      "componentType": 5126,
      "count": 4691,
      "max": [
        0.9970700144767761,
        0.997560977935791
      ],
      "min": [
        0.6464840173721313,
        0.3867189884185791
      ],
      "type": "VEC2"
    },
    {
      "bufferView": 1,
      "byteOffset": 744312,
      "componentType": 5126,
      "count": 4691,
      "max": [
        0.9970700144767761,
        0.997560977935791
      ],
      "min": [
        0.6464840173721313,
        0.3867189884185791
      ],
      "type": "VEC2"
    },
    {
      "bufferView": 1,
      "byteOffset": 781840,
      "componentType": 5126,
      "count": 4691,
      "max": [
        0.9970700144767761,
        0.997560977935791
      ],
      "min": [
        0.6464840173721313,
        0.3867189884185791
      ],
      "type": "VEC2"
    },
    {
      "bufferView": 0,
      "byteOffset": 208704,
      "componentType": 5125,
      "count": 9579,
      "type": "SCALAR"
    },
    {
      "bufferView": 2,
      "byteOffset": 621096,
      "componentType": 5126,
      "count": 22,
      "max": [
        72.75588989257813,
        1.555171012878418,
        -9.462015151977539
      ],
      "min": [
        71.73487854003906,
        -1.5551700592041016,
        -11.570978164672852
      ],
      "type": "VEC3"
    },
    {
      "bufferView": 2,
      "byteOffset": 621360,
      "componentType": 5126,
      "count": 22,
      "max": [
        0.9078989028930664,
        0.0003320381511002779,
        0.41944509744644165
      ],
      "min": [
        -0.9078981280326843,
        -0.0003317971422802657,
        -0.4194602966308594
      ],
      "type": "VEC3"
    },
    {
      "bufferView": 1,
      "byteOffset": 819368,
      "componentType": 5126,
      "count": 22,
      "max": [
        1.9384770393371582,
        -0.8237299919128418
      ],
      "min": [
        1.730468988418579,
        -0.9780269861221313
      ],
      "type": "VEC2"
    },
    {
      "bufferView": 0,
      "byteOffset": 247020,
      "componentType": 5125,
      "count": 54,
      "type": "SCALAR"
    },
    {
      "bufferView": 2,
      "byteOffset": 621624,
      "componentType": 5126,
      "count": 190,
      "max": [
        86.96728515625,
        2.4600260257720947,
        -5.922145843505859
      ],
      "min": [
        -60.99842834472656,
        -31.751033782958984,
        -16.56888771057129
      ],
      "type": "VEC3"
    },
    {
      "bufferView": 2,
      "byteOffset": 623904,
      "componentType": 5126,
      "count": 190,
      "max": [
        0.9990471601486206,
        0.9973987340927124,
        0.9766740202903748
      ],
      "min": [
        -0.9990493655204773,
        -0.9973989129066467,
        -0.9990482330322266
      ],
      "type": "VEC3"
    },
    {
      "bufferView": 1,
      "byteOffset": 819544,
      "componentType": 5126,
      "count": 190,
      "max": [
        0.8924575448036194,
        0.6048691272735596
      ],
      "min": [
        0.6365986466407776,
        0.21015512943267822
      ],
      "type": "VEC2"
    },
    {
      "bufferView": 0,
      "byteOffset": 247236,
      "componentType": 5125,
      "count": 894,
      "type": "SCALAR"
    },
    {
      "bufferView": 2,
      "byteOffset": 626184,
      "componentType": 5126,
      "count": 258,
      "max": [
        65.95384979248047,
        25.779022216796875,
        8.504948616027832
      ],
      "min": [
        -19.065494537353516,
        -25.779022216796875,
        1.700490951538086
      ],
      "type": "VEC3"
    },
    {
      "bufferView": 2,
      "byteOffset": 629280,
      "componentType": 5126,
      "count": 258,
      "max": [
        0.1938433051109314,
        0.9700327515602112,
        1.0
      ],
      "min": [
        -0.15339012444019318,
        -0.970032811164856,
        0.237582728266716
      ],
      "type": "VEC3"
    },
    {
      "bufferView": 3,
      "byteOffset": 408224,
      "componentType": 5126,
      "count": 258,
      "max": [
        1.0,
        1.0,
        0.9709303379058838,
        1.0
      ],
      "min": [
        -0.10637537389993668,
        -0.7666304111480713,
        -0.9709303975105286,
        -1.0
      ],
      "type": "VEC4"
    },
    {
      "bufferView": 1,
      "byteOffset": 821064,
      "componentType": 5126,
      "count": 258,
      "max": [
        0.9448239803314209,
        0.9057620167732239
      ],
      "min": [
        0.09173599630594254,
        0.4296880066394806
      ],
      "type": "VEC2"
    },
    {
      "bufferView": 1,
      "byteOffset": 823128,
      "componentType": 5126,
      "count": 258,
      "max": [
        0.9448239803314209,
        0.9057620167732239
      ],
      "min": [
        0.09173599630594254,
        0.4296880066394806
      ],
      "type": "VEC2"
    },
    {
      "bufferView": 1,
      "byteOffset": 825192,
      "componentType": 5126,
      "count": 258,
      "max": [
        0.9448239803314209,
        0.9057620167732239
      ],
      "min": [
        0.09173599630594254,
        0.4296880066394806
      ],
      "type": "VEC2"
    },
    {
      "bufferView": 1,
      "byteOffset": 827256,
      "componentType": 5126,
      "count": 258,
      "max": [
        0.9448239803314209,
        0.9057620167732239
      ],
      "min": [
        0.09173599630594254,
        0.4296880066394806
      ],
      "type": "VEC2"
    },
    {
      "bufferView": 0,
      "byteOffset": 250812,
      "componentType": 5125,
      "count": 1128,
      "type": "SCALAR"
    },
    {
      "bufferView": 2,
      "byteOffset": 632376,
      "componentType": 5126,
      "count": 14056,
      "max": [
        65.95384979248047,
        30.116209030151367,
        24.205066680908203
      ],
      "min": [
        -19.587425231933594,
        -30.116140365600586,
        -1.655392050743103
      ],
      "type": "VEC3"
    },
    {
      "bufferView": 2,
      "byteOffset": 801048,
      "componentType": 5126,
      "count": 14056,
      "max": [
        0.9996265769004822,
        1.0,
        0.9999813437461853
      ],
      "min": [
        -0.9998118877410889,
        -1.0,
        -0.9999951124191284
      ],
      "type": "VEC3"
    },
    {
      "bufferView": 3,
      "byteOffset": 412352,
      "componentType": 5126,
      "count": 14056,
      "max": [
        1.0,
        1.0,
        0.9999997019767761,
        1.0
      ],
      "min": [
        -0.9999951124191284,
        -1.0,
        -0.9999886751174927,
        -1.0
      ],
      "type": "VEC4"
    },
    {
      "bufferView": 1,
      "byteOffset": 829320,
      "componentType": 5126,
      "count": 14056,
      "max": [
        0.9990230202674866,
        0.9057620167732239
      ],
      "min": [
        0.09173599630594254,
        0.12597699463367462
      ],
      "type": "VEC2"
    },
    {
      "bufferView": 1,
      "byteOffset": 941768,
      "componentType": 5126,
      "count": 14056,
      "max": [
        0.9990230202674866,
        0.9057620167732239
      ],
      "min": [
        0.09173599630594254,
        0.12597699463367462
      ],
      "type": "VEC2"
    },
    {
      "bufferView": 1,
      "byteOffset": 1054216,
      "componentType": 5126,
      "count": 14056,
      "max": [
        0.9990230202674866,
        0.9057620167732239
      ],
      "min": [
        0.09173599630594254,
        0.12597699463367462
      ],
      "type": "VEC2"
    },
    {
      "bufferView": 1,
      "byteOffset": 1166664,
      "componentType": 5126,
      "count": 14056,
      "max": [
        0.9990230202674866,
        0.9057620167732239
      ],
      "min": [
        0.09173599630594254,
        0.12597699463367462
      ],
      "type": "VEC2"
    },
    {
      "bufferView": 0,
      "byteOffset": 255324,
      "componentType": 5125,
      "count": 31860,
      "type": "SCALAR"
    },
    {
      "bufferView": 2,
      "byteOffset": 969720,
      "componentType": 5126,
      "count": 34,
      "max": [
        49.6320686340332,
        1.3256069421768188,
        8.771062850952148
      ],
      "min": [
        48.68461990356445,
        -1.7365939617156982,
        4.725685119628906
      ],
      "type": "VEC3"
    },
    {
      "bufferView": 2,
      "byteOffset": 970128,
      "componentType": 5126,
      "count": 34,
      "max": [
        0.999047577381134,
        0.3743566870689392,
        0.3366181254386902
      ],
      "min": [
        0.9064738154411316,
        -0.37988948822021484,
        -0.4168953001499176
      ],
      "type": "VEC3"
    },
    {
      "bufferView": 1,
      "byteOffset": 1279112,
      "componentType": 5126,
      "count": 34,
      "max": [
        1.3222659826278687,
        -0.140625
      ],
      "min": [
        1.0927729606628418,
        -0.29614299535751343
      ],
      "type": "VEC2"
    },
    {
      "bufferView": 0,
      "byteOffset": 382764,
      "componentType": 5125,
      "count": 96,
      "type": "SCALAR"
    }
  ],
  "asset": {
    "extras": {
      "author": "bohmerang (https://sketchfab.com/bohmerang)",
      "license": "CC-BY-NC-SA-4.0 (http://creativecommons.org/licenses/by-nc-sa/4.0/)",
      "source": "https://sketchfab.com/3d-models/sukhoi-su-57-felon-fighter-jet-free-59995d6f34ba4bb7990195be3a745fc5",
      "title": "Sukhoi Su-57 Felon - Fighter Jet - Free"
    },
    "generator": "Sketchfab-16.21.0",
    "version": "2.0"
  },
  "bufferViews": [
    {
      "buffer": 0,
      "byteLength": 383148,
      "name": "floatBufferViews",
      "target": 34963
    },
    {
      "buffer": 0,
      "byteLength": 1279384,
      "byteOffset": 383148,
      "byteStride": 8,
      "name": "floatBufferViews",
      "target": 34962
    },
    {
      "buffer": 0,
      "byteLength": 970536,
      "byteOffset": 1662532,
      "byteStride": 12,
      "name": "floatBufferViews",
      "target": 34962
    },
    {
      "buffer": 0,
      "byteLength": 637248,
      "byteOffset": 2633068,
      "byteStride": 16,
      "name": "floatBufferViews",
      "target": 34962
    }
  ],
  "buffers": [
    {
      "byteLength": 3270316,
      "uri": "scene.bin"
    }
  ],
  "images": [
    {
      "uri": "textures/airframe_baseColor.png"
    },
    {
      "uri": "textures/airframe_metallicRoughness.png"
    },
    {
      "uri": "textures/airframe_normal.png"
    }
  ],
  "materials": [
    {
      "doubleSided": true,
      "name": "airframe",
      "normalTexture": {
        "index": 2
      },
      "pbrMetallicRoughness": {
        "baseColorTexture": {
          "index": 0
        },
        "metallicRoughnessTexture": {
          "index": 1
        }
      }
    },
    {
      "alphaMode": "BLEND",
      "doubleSided": true,
      "name": "Glass",
      "pbrMetallicRoughness": {
        "baseColorFactor": [
          1.0,
          1.0,
          1.0,
          0.20010565183582338
        ],
        "roughnessFactor": 0.0
      }
    },
    {
      "alphaMode": "BLEND",
      "doubleSided": true,
      "name": "material",
      "pbrMetallicRoughness": {
        "baseColorFactor": [
          0.0016390400000000041,
          0.7999999999999999,
          0.034103899999999986,
          0.048280408763609235
        ],
        "metallicFactor": 0.0,
        "roughnessFactor": 0.0
      }
    },
    {
      "doubleSided": true,
      "emissiveFactor": [
        1.0,
        1.0,
        1.0
      ],
      "name": "lights",
      "pbrMetallicRoughness": {
        "baseColorFactor": [
          0.8,
          0.8,
          0.8,
          1.0
        ],
        "metallicFactor": 0.0,
        "roughnessFactor": 0.0
      }
    }
  ],
  "meshes": [
    {
      "name": "Object_0",
      "primitives": [
        {
          "attributes": {
            "NORMAL": 1,
            "POSITION": 0,
            "TANGENT": 2,
            "TEXCOORD_0": 3,
            "TEXCOORD_1": 4,
            "TEXCOORD_2": 5,
            "TEXCOORD_3": 6
          },
          "indices": 7,
          "material": 0,
          "mode": 4
        }
      ]
    },
    {
      "name": "Object_1",
      "primitives": [
        {
          "attributes": {
            "NORMAL": 9,
            "POSITION": 8,
            "TEXCOORD_0": 10
          },
          "indices": 11,
          "material": 1,
          "mode": 4
        }
      ]
    },
    {
      "name": "Object_2",
      "primitives": [
        {
          "attributes": {
            "NORMAL": 13,
            "POSITION": 12,
            "TANGENT": 14,
            "TEXCOORD_0": 15,
            "TEXCOORD_1": 16,
            "TEXCOORD_2": 17,
            "TEXCOORD_3": 18
          },
          "indices": 19,
          "material": 0,
          "mode": 4
        }
      ]
    },
    {
      "name": "Object_3",
      "primitives": [
        {
          "attributes": {
            "NORMAL": 21,
            "POSITION": 20,
            "TEXCOORD_0": 22
          },
          "indices": 23,
          "material": 2,
          "mode": 4
        }
      ]
    },
    {
      "name": "Object_4",
      "primitives": [
        {
          "attributes": {
            "NORMAL": 25,
            "POSITION": 24,
            "TEXCOORD_0": 26
          },
          "indices": 27,
          "material": 1,
          "mode": 4
        }
      ]
    },
    {
      "name": "Object_5",
      "primitives": [
        {
          "attributes": {
            "NORMAL": 29,
            "POSITION": 28,
            "TANGENT": 30,
            "TEXCOORD_0": 31,
            "TEXCOORD_1": 32,
            "TEXCOORD_2": 33,
            "TEXCOORD_3": 34
          },
          "indices": 35,
          "material": 0,
          "mode": 4
        }
      ]
    },
    {
      "name": "Object_6",
      "primitives": [
        {
          "attributes": {
            "NORMAL": 37,
            "POSITION": 36,
            "TANGENT": 38,
            "TEXCOORD_0": 39,
            "TEXCOORD_1": 40,
            "TEXCOORD_2": 41,
            "TEXCOORD_3": 42
          },
          "indices": 43,
          "material": 0,
          "mode": 4
        }
      ]
    },
    {
      "name": "Object_7",
      "primitives": [
        {
          "attributes": {
            "NORMAL": 45,
            "POSITION": 44,
            "TEXCOORD_0": 46
          },
          "indices": 47,
          "material": 3,
          "mode": 4
        }
      ]
    }
  ],
  "nodes": [
    {
      "children": [
        1
      ],
      "matrix": [
        1.0,
        0.0,
        0.0,
        0.0,
        0.0,
        2.220446049250313e-16,
        -1.0,
        0.0,
        0.0,
        1.0,
        2.220446049250313e-16,
        0.0,
        0.0,
        0.0,
        0.0,
        1.0
      ],
      "name": "Sketchfab_model"
    },
    {
      "children": [
        2
      ],
      "name": "root"
    },
    {
      "children": [
        3,
        5,
        7,
        9,
        11,
        13,
        15,
        17
      ],
      "matrix": [
        1.0,
        0.0,
        0.0,
        0.0,
        0.0,
        2.220446049250313e-16,
        1.0,
        0.0,
        0.0,
        -1.0,
        2.220446049250313e-16,
        0.0,
        0.0,
        0.0,
        0.0,
        1.0
      ],
      "name": "GLTF_SceneRootNode"
    },
    {
      "children": [
        4
      ],
      "matrix": [
        1.0,
        0.0,
        0.0,
        0.0,
        0.0,
        8.429369480200677e-08,
        0.9999999999999966,
        0.0,
        0.0,
        -0.9999999999999966,
        8.429369480200677e-08,
        0.0,
        0.0,
        0.0,
        0.0,
        1.0
      ],
      "name": "SU57-airframe_0"
    },
    {
      "mesh": 0,
      "name": "Object_4"
    },
    {
      "children": [
        6
      ],
      "matrix": [
        1.0,
        0.0,
        0.0,
        0.0,
        0.0,
        8.429369480200677e-08,
        0.9999999999999966,
        0.0,
        0.0,
        -0.9999999999999966,
        8.429369480200677e-08,
        0.0,
        0.0,
        0.0,
        0.0,
        1.0
      ],
      "name": "SU57-canopy_1"
    },
    {
      "mesh": 1,
      "name": "Object_6"
    },
    {
      "children": [
        8
      ],
      "matrix": [
        1.0,
        0.0,
        0.0,
        0.0,
        0.0,
        8.429369480200677e-08,
        0.9999999999999966,
        0.0,
        0.0,
        -0.9999999999999966,
        8.429369480200677e-08,
        0.0,
        0.0,
        0.0,
        0.0,
        1.0
      ],
      "name": "SU57-cockpit_2"
    },
    {
      "mesh": 2,
      "name": "Object_8"
    },
    {
      "children": [
        10
      ],
      "matrix": [
        1.0,
        0.0,
        0.0,
        0.0,
        0.0,
        8.429369480200677e-08,
        0.9999999999999966,
        0.0,
        0.0,
        -0.9999999999999966,
        8.429369480200677e-08,
        0.0,
        0.0,
        0.0,
        0.0,
        1.0
      ],
      "name": "SU57-hud_3"
    },
    {
      "mesh": 3,
      "name": "Object_10"
    },
    {
      "children": [
        12
      ],
      "matrix": [
        1.0,
        0.0,
        0.0,
        0.0,
        0.0,
        8.429369480200677e-08,
        0.9999999999999966,
        0.0,
        0.0,
        -0.9999999999999966,
        8.429369480200677e-08,
        0.0,
        0.0,
        0.0,
        0.0,
        1.0
      ],
      "name": "SU57-instrGlass_4"
    },
    {
      "mesh": 4,
      "name": "Object_12"
    },
    {
      "children": [
        14
      ],
      "matrix": [
        1.0,
        0.0,
        0.0,
        0.0,
        0.0,
        8.429369480200677e-08,
        0.9999999999999966,
        0.0,
        0.0,
        -0.9999999999999966,
        8.429369480200677e-08,
        0.0,
        0.0,
        0.0,
        0.0,
        1.0
      ],
      "name": "SU57-landingOff_5"
    },
    {
      "mesh": 5,
      "name": "Object_14"
    },
    {
      "children": [
        16
      ],
      "matrix": [
        1.0,
        0.0,
        0.0,
        0.0,
        0.0,
        8.429369480200677e-08,
        0.9999999999999966,
        0.0,
        0.0,
        -0.9999999999999966,
        8.429369480200677e-08,
        0.0,
        0.0,
        0.0,
        0.0,
        1.0
      ],
      "name": "SU57-landingOn_6"
    },
    {
      "mesh": 6,
      "name": "Object_16"
    },
    {
      "children": [
        18
      ],
      "matrix": [
        1.0,
        0.0,
        0.0,
        0.0,
        0.0,
        8.429369480200677e-08,
        0.9999999999999966,
        0.0,
        0.0,
        -0.9999999999999966,
        8.429369480200677e-08,
        0.0,
        0.0,
        0.0,
        0.0,
        1.0
      ],
      "name": "SU57-landingOnLight_7"
    },
    {
      "mesh": 7,
      "name": "Object_18"
    }
  ],
  "samplers": [
    {
      "magFilter": 9729,
      "minFilter": 9987,
      "wrapS": 10497,
      "wrapT": 10497
    }
  ],
  "scene": 0,
  "scenes": [
    {
      "name": "Sketchfab_Scene",
      "nodes": [
        0
      ]
    }
  ],
  "textures": [
    {
      "sampler": 0,
      "source": 0
    },
    {
      "sampler": 0,
      "source": 1
    },
    {
      "sampler": 0,
      "source": 2
    }
  ]
}
